<?xml version="1.0" standalone="no"?>
<!DOCTYPE svg PUBLIC "-//W3C//DTD SVG 1.1//EN" "http://www.w3.org/Graphics/SVG/1.1/DTD/svg11.dtd" >
<svg xmlns="http://www.w3.org/2000/svg">
<metadata></metadata>
<defs>
<font id="daliregular" horiz-adv-x="1400" >
<font-face units-per-em="2048" ascent="1638" descent="-410" />
<missing-glyph horiz-adv-x="534" />
<glyph horiz-adv-x="0" />
<glyph unicode="&#xd;" horiz-adv-x="534" />
<glyph unicode=" "  horiz-adv-x="534" />
<glyph unicode="&#x09;" horiz-adv-x="534" />
<glyph unicode="&#xa0;" horiz-adv-x="534" />
<glyph unicode="!" horiz-adv-x="847" d="M82 0q20 109 78 158q0 2 47 59q37 41 63 45q2 -199 -100 -254q-68 -26 -88 -8zM326 420q184 977 372 1110q70 23 117 65.5t41 42.5v-2q0 8 -18 -82q-12 -55 -29 -104q-41 -123 -98 -211z" />
<glyph unicode="&#x22;" horiz-adv-x="862" d="M205 1159q158 217 170 430q98 -6 145 -110q12 -33 12 -56q0 -33 -43 -71q-61 -55 -124 -113zM537 1159q158 217 170 430q100 -6 145 -110q12 -33 12 -56q0 -33 -41 -71q-63 -55 -125 -113z" />
<glyph unicode="#" horiz-adv-x="1335" d="M0 573q0 35 35 52q23 10 63 16q96 18 260 23l70 196q-205 -2 -311 60l-37 129q25 -8 70 -17q106 -18 301 -28q90 289 75 415q-18 131 -18 189q0 31 6 30q6 -2 12 -14l121 -84q10 -35 10 -98q0 -176 -86 -447q27 -6 66 -6q92 0 199 39q31 63 69 127q92 147 211 264 l-182 -393q41 0 227 8q31 -23 56 -43q59 -49 71 -78q-92 6 -422 -8l-53 -211q88 10 158 -30q39 -66 39 -121q-92 23 -219 14q-16 -39 -39 -223q-27 -211 -45 -291q-10 -43 -21 -43q-18 0 -20 195l45 362l-246 16q-78 -190 -158 -348q-25 -43 -45 -43q-35 0 -39 142l68 211 l-250 8q-8 -6 -14 -6q-27 0 -27 36zM504 686q178 14 229 31q14 133 45 180l-237 -23q0 -98 -37 -188z" />
<glyph unicode="$" horiz-adv-x="1325" d="M-188 -139l645 205q14 6 20 24q2 12 6 23q14 27 15 32q0 8 -9 9q-16 0 -65 -35q-41 -27 -117 -60q-180 -84 -495 -198zM336 1206q0 -223 262 -362q25 -14 64 -37l-95 -610q-14 -4 -20 -13q-2 -29 -8 -69q-2 -11 12 -17l-102 -641q-23 -78 -23 -75q0 -8 8 -9q4 0 15 4 q31 23 92 93l104 661q72 18 248 133q201 131 205 201q8 100 -101 221q-53 57 -235 215l45 326l65 291q117 -27 258 -99q25 -12 46 -71q8 -18 22 -19q35 0 35 43q0 25 -25 43q-23 12 -55 33q-127 78 -270 117l90 389q8 35 -29 35q-12 0 -104 -29q-39 -29 -39 -258l-23 -119 q-268 23 -391 -194q-51 -90 -51 -183zM455 1245q41 276 301 264l-76 -555q-223 78 -225 291zM668 215l82 535q170 -121 170 -242q0 -148 -252 -293z" />
<glyph unicode="%" horiz-adv-x="1284" d="M4 -139q0 -14 14.5 -40t26.5 -26q10 0 35 55q18 59 158 338q162 324 168 338q63 137 442 748q354 569 350 569q-27 0 -416 -583q-410 -614 -485 -828q-129 -246 -287 -547q-6 -16 -6 -24zM31 987q0 43 57 92q43 39 102.5 70t59.5 25q0 -16 -62.5 -82t-62.5 -101 q0 -45 74 -55q76 -12 131 49q39 43 53 102q6 20 6 43q0 63 -55 78q-43 8 -88 17q-6 4 -8 8q0 10 53 10q70 0 129 -18q74 -25 74 -66q0 -102 -93.5 -196.5t-191.5 -94.5q-23 0 -45 6q-133 45 -133 113zM637 557q0 45 57 94q41 37 105 70q57 29 57 22q0 -14 -62.5 -79.5 t-62.5 -102.5q0 -43 72 -53q78 -12 133 49q37 41 53 100q6 23 6 43q0 66 -55 80q-45 8 -88 17q-8 4 -8 8q0 10 51 10q72 0 131 -18q74 -25 74 -66q0 -102 -94.5 -196.5t-190.5 -94.5q-25 0 -45 6q-133 45 -133 111z" />
<glyph unicode="&#x26;" horiz-adv-x="1675" d="M47 334q0 -141 94 -230q98 -94 279 -104q164 -8 346 123q156 113 272 283q111 160 111 253q0 23 -8 39q-33 57 -33 119q0 258 567 262q-147 14 -268 15q-403 0 -444 -133q-6 -78 40 -151t46 -108q0 -37 -27 -86q-80 -143 -227 -290q-188 -188 -326 -189q-61 0 -109 39 q-131 113 -131 250q0 164 172 296t428 155q-129 92 -129 229q0 86 45 166q138 212 617 366q-211 -8 -350 -32q-303 -59 -422 -322q-23 -57 -23 -135q0 -117 62 -231q-299 -41 -463 -250q-119 -172 -119 -334z" />
<glyph unicode="'" horiz-adv-x="499" d="M174 1155q158 217 170 430q100 -6 145 -112q12 -33 13 -54q0 -33 -41 -71q-63 -57 -125 -115z" />
<glyph unicode="(" horiz-adv-x="854" d="M27 342q0 -240 51 -444q-29 125 -29 266q0 387 187 799q76 143 161 262q207 282 430 393q-453 -188 -651 -590q-150 -297 -149 -686z" />
<glyph unicode=")" horiz-adv-x="854" d="M47 -82q455 279 680 850q115 350 115 627q0 143 -35 243q6 -72 6 -145q0 -561 -383 -1124q-160 -236 -383 -451z" />
<glyph unicode="*" horiz-adv-x="612" d="M70 1300q0 6 21.5 32t21.5 30q0 20 82 24h102q-2 6 -18 58q-12 37 -13 57q0 4 -6 27.5t-6 36.5q0 14 10 14q6 -4 12.5 -8t10.5 -8q35 -8 41 -15.5t6 -44.5q0 -20 16 -92l10 -12q23 43 48 86q37 59 92 106q4 4 8 4q23 0 16 -49q-16 -25 -39 -59q-6 -23 -67 -96q6 -2 20 -2 q16 0 52 4t53 4q12 0 36.5 -13.5t30.5 -15.5q16 -4 17 -10q0 -10 -36 -19.5t-52.5 -9.5t-48 -2t-50.5 -2q-6 0 -37 -2l-20 -8q4 -41 35 -172q10 -29 10 -60q0 -4 6 -31.5t6 -37.5q0 -8 -4 -8t-26.5 29.5t-24.5 31.5q-23 -2 -76 188q-94 -111 -139 -147q-29 -20 -37 -21 q-4 0 -4 5q0 8 17.5 37.5t17.5 35.5t57 70q37 39 72 76l-62 4q-4 0 -81 -10q-59 -6 -76 -7q-4 0 -4 2z" />
<glyph unicode="+" horiz-adv-x="731" d="M41 809q0 6 41 4q47 -2 49 -2q27 0 80 2q43 6 125 12q8 53 43 170q18 37 65 84q6 6 12.5 -6t6.5 -20q-12 -45 -29 -117q-8 -35 -26 -109q16 0 41 -2q68 0 241 -16q-61 -20 -137 -39q-29 2 -77 -11t-81 -9q-6 -43 -26 -152q-12 -66 -50 -72q-10 -2 -53 -20q-18 -8 -37 -14 q33 72 70 170q8 41 23 94q-84 -2 -177 8q-55 6 -98 35q-6 6 -6 10z" />
<glyph unicode="," horiz-adv-x="401" d="M76 -178q158 217 170 430q98 -7 145 -111q12 -33 12 -53q0 -35 -43 -74q-61 -55 -124 -112z" />
<glyph unicode="-" horiz-adv-x="552" d="M84 422l352 33l33 114l-317 -34z" />
<glyph unicode="." horiz-adv-x="280" d="M96 0q20 109 78 158q0 2 47 59q37 41 64 45q2 -199 -101 -254q-68 -26 -88 -8z" />
<glyph unicode="/" horiz-adv-x="1097" d="M111 -410q90 8 180 127q37 51 53 52q6 0 10 -7q434 1536 633 1831l-24 45q-76 -102 -158 -110l-332 -1075q-82 -266 -190 -523q-102 -240 -172 -340z" />
<glyph unicode="0" d="M123 412q6 -178 145 -306q145 -133 344 -116q186 16 363 235q145 184 231 428q72 201 72 430q0 225 -76 282.5t-158 57.5q-135 0 -284 -139q-113 -104 -187 -231q217 225 365 225q68 0 102 -45q90 -133 90 -313q0 -162 -73 -351q-76 -195 -156 -284q-111 -125 -270 -125 q-51 0 -109 12q-246 51 -246 379q0 176 66 319q102 231 199 363q166 219 387 293q-412 -104 -625 -451q-127 -240 -160 -377q-27 -106 -20 -286z" />
<glyph unicode="1" horiz-adv-x="1177" d="M166 -27q0 -14 18 -14q55 0 144.5 63.5t144.5 61.5q-4 190 99.5 424.5t232.5 599.5q139 387 199 522q10 25 10 35q0 14 -13 14q-27 0 -131 -75q-129 -96 -139 -102.5t-49 -106.5q4 -12 16 -13q14 0 36 12.5t38 12.5q23 0 23 -29q0 -33 -33 -104q-160 -256 -299 -572 q-90 -170 -191 -438q-51 -135 -100 -270q-6 -12 -6 -21z" />
<glyph unicode="2" d="M223 373q240 178 498 334q160 106 235 258q61 121 54 225q-14 188 -78 264q-94 111 -352 111q-115 -1 -267 -21q47 131 191 135q12 0 18 -14t23 -12q55 6 108 6q145 0 256 -57q268 -139 269 -428q0 -158 -88 -281q-76 -104 -234 -231q-76 -59 -250 -183 q-117 -82 -117 -98q0 -4 7 -6q29 -12 79 -58q127 -109 353 -358q-575 365 -705 414z" />
<glyph unicode="3" d="M262 1536q113 119 189 143q69 11 61 -32q391 -16 553 -174q74 -88 74 -259q0 -129 -52 -213q-49 -74 -116 -139q-160 -152 -377 -225q268 -20 268 -178q0 -94 -88 -209q-45 -49 -104 -94q-145 -113 -353 -197q211 143 326 277q94 119 94 180q0 109 -260 145l-55 105 q119 8 346 172q121 88 150 120q59 70 77 195q4 27 4 51q0 195 -206 295q-121 59 -320 60q-160 0 -211 -23z" />
<glyph unicode="4" d="M109 651q0 -25 11 -47t25 -22q51 6 611 18l-150 -461q-43 -129 -43 -166q0 -14 8 -14q12 0 57.5 58.5t54.5 62.5t40 24q20 14 33 15q6 0 10 -2q94 354 156 489l180 37q188 10 188 43q0 16 -45 33q-18 8 -71 49l-209 -37l274 946q-4 2 -10 2q-16 0 -43 -20 q-18 -29 -64 -127q-104 -240 -325 -801q-162 -20 -269 -20q-143 0 -161 32q0 35 32 111q78 183 301 535q-260 -211 -417 -594q-23 -80 -136 -95q-39 -4 -38 -49z" />
<glyph unicode="5" d="M104 834q121 12 222 12q287 0 346 -94q20 -51 20 -119q0 -213 -168 -373q-205 -197 -387 -301q367 111 514 240q213 213 213 460q0 344 -397 345q-70 0 -150 -11l144 314q512 25 837 372q-555 -241 -938 -266q-195 -465 -256 -579z" />
<glyph unicode="6" d="M41 451q0 -70 14 -142q66 -313 439 -348q35 -2 67 -2q193 0 328 100q121 90 166 236q12 39 12 74q0 72 -41 116q-47 49 -129 50q-49 0 -104 -17q-70 -25 -127 -61q-137 -92 -191 -236q238 188 344 203q121 0 121 -82q0 -35 -33 -80q-55 -74 -149 -119q-102 -51 -209 -43 q-150 8 -232 97q-68 74 -79 180q-4 33 -5 74q0 188 76 368q111 262 361 453q127 94 241 168q276 182 447 239q-459 -57 -912 -473q-406 -399 -405 -755z" />
<glyph unicode="7" d="M217 2q143 334 418 801l-270 41l323 45q156 252 303 446q2 2 2 4q0 51 -518 187q-33 8 -63 16q-16 14 -27 107q-4 31 8 30q10 0 62 -45q57 -51 94 -67q213 -98 639 -111q-172 -246 -369 -586q141 -45 234 -63l-295 -19q-197 -362 -271 -663q-188 -166 -247 -166 q-33 0 -23 43z" />
<glyph unicode="8" d="M-39 362q0 127 100 273q31 41 74 86q104 104 246 199q8 18 8 137q0 315 68 379q61 45 180 45q90 0 199 -29q-168 -20 -209.5 -36.5t-102.5 -98.5q-33 -51 -32 -139q0 -84 32 -181q299 270 455 387q43 33 181 120t376 167q27 8 35 8q2 0 2 -2q0 -6 -195 -121 q-213 -123 -264 -172q-80 -72 -498 -489q-49 0 -49 -49q0 -35 25 -86q111 -221 100 -455q-4 -135 -139 -248q-123 -104 -223 -98q-111 8 -168 39q-88 47 -152 172q-49 98 -49 192zM137 416q12 -301 168 -314q86 -6 161 62.5t75 165.5q0 61 -54.5 197.5t-54.5 240.5 q-283 -133 -295 -352z" />
<glyph unicode="9" d="M-18 -225q401 74 712 413q131 141 234 326q182 373 182 625q0 76 -18.5 156.5t-97 138t-160.5 61.5q-248 10 -406 -147q-129 -143 -129 -326q0 -94 44 -137t142 -43t189 47q104 57 160 168q-160 -104 -265 -105q-70 0 -95 43t-25 84q0 137 194 236q63 31 135 31 q76 0 132.5 -33t60.5 -84q12 -154 -56 -393q-72 -248 -186 -424q-135 -213 -354 -399.5t-393 -237.5z" />
<glyph unicode=":" horiz-adv-x="280" d="M96 164q20 109 78 158q0 2 47 59q37 41 64 45q2 -199 -101 -254q-68 -26 -88 -8zM96 592q20 109 78 158l47 57q37 43 64 45q2 -199 -101 -254q-68 -26 -88 -6z" />
<glyph unicode=";" horiz-adv-x="401" d="M76 -137q158 217 170 430q98 -7 145 -111q12 -33 12 -53q0 -35 -43 -74q-61 -55 -124 -112zM270 592q20 109 76 158q2 0 49 57q37 43 64 45q2 -199 -101 -254q-68 -26 -88 -6z" />
<glyph unicode="=" horiz-adv-x="837" d="M80 651q10 27 47 47q37 18 100 0q10 -2 31 -2q23 0 133 9q102 8 150 6q25 -2 151 0q82 2 82 -11q0 -2 -4 -6q-20 -18 -90 -51q-92 -2 -209 -2q-51 0 -174 -8q-96 -6 -117 -2q-18 2 -100 20zM82 864q10 27 49 47q35 18 100 0q8 -2 29 -2q23 0 135 9q100 8 148 4q14 0 98 2 q29 2 43 -15.5t59 -60.5q-154 6 -270 6q-127 -10 -291 -10q-18 2 -100 20z" />
<glyph unicode="?" horiz-adv-x="942" d="M31 0q18 96 69 141l43 52q33 39 58 40q0 -178 -90 -227q-62 -22 -80 -6zM231 1427q0 -14 9 -26q12 -18 24 -36.5t31 -18.5q20 0 46 22.5t26 42.5q0 8 -5 14q-20 29 0 56q23 29 78 55q76 33 164 35q170 2 170 -193q0 -29 -2 -61q-10 -86 -55 -164q-59 -104 -215 -262 q-51 -51 -113 -92q-37 -25 -110 -127q-31 -168 -31 -221q0 -23 6 -23t18 29q70 168 211 313q23 25 241 217.5t218 413.5q0 102 -51 153q-82 84 -234 84q-102 0 -221 -41q-31 -10 -61 -28q-72 -39 -123 -96q-20 -23 -21 -46z" />
<glyph unicode="@" horiz-adv-x="1724" d="M0 547q0 174 92 338q203 354 559 549q301 166 682 200q31 4 62 4q330 0 329 -372q0 -147 -51 -338q-33 -96 -88 -183q-131 -205 -348 -315q-27 -20 -84 -20q-47 0 -100 12q-92 25 -92 98q0 27 14 51q-37 -43 -209 -122q-143 -63 -221 -64q-94 0 -94 86q0 49 26 107 q115 248 445 278q-213 -76 -297 -158q-61 -72 -62 -133q0 -76 117 -84q59 -4 166 60q117 72 117 143q0 39 -37 72q90 -27 141 -33q29 -6 29 -33q0 -12 -9 -26q-23 -53 -22 -93q0 -51 40 -65t81 -14q199 0 311 309q86 238 86 493q0 57 -6 88q-45 203 -279 203 q-111 0 -268 -41q-266 -70 -481 -287q-133 -133 -299 -389q-131 -207 -131 -467q0 -137 41 -190t129 -98t155 -52q145 -2 908 101q-395 -162 -701 -162q-315 0 -491 166q-160 150 -160 381z" />
<glyph unicode="A" horiz-adv-x="1372" d="M35 215q0 -119 92 -160q4 -2 14 -2q119 0 346 207q344 313 750 979q29 -6 29 -68q0 -94 -58 -282q-96 -301 -213 -617q-25 -68 -43 -204q-16 -129 -16 -224q0 -74 12 -80l68 43q18 256 114 568q240 719 240 1009q0 82 -16 138q-72 0 -107 -29l-39 -154 q-358 -573 -633 -817q-175 -157 -287 -157h-1q-25 0 -39 6q-31 20 -31 73q0 158 248 533q231 350 387 471q248 197 334 197q45 0 80 -37l20 45q-17 57 -83 57h-5q-379 -176 -706 -567q-135 -162 -250 -355q-207 -381 -207 -573z" />
<glyph unicode="B" horiz-adv-x="1284" d="M33 -33q0 8 6 15q18 20 43 36q55 41 123 58q18 246 55 483q92 573 268 1014q-47 16 -106 16h-6l-154 -26q-20 -8 -20 22q0 70 53 94q12 4 41 4q86 0 248 -41q98 88 114 89q4 0 2 -5q-16 -41 -45 -104q598 -213 598 -369q0 -18 -10 -28q-39 -37 -106 -78 q-162 -96 -435 -191q281 -82 400 -196q78 -74 78 -150q0 -16 -4 -28q-41 -78 -138 -166q-229 -209 -694 -426q-4 -205 -37 -205q-8 0 -16 12q-25 43 -84 180q-92 -24 -136 -24h-3q-35 0 -35 14zM348 154q631 260 631 446q0 18 -6 29q-66 84 -139 147q-176 150 -371 164 q-115 -282 -115 -754v-32zM477 1030q596 76 596 213q0 27 -20 45q-39 31 -97 68q-137 88 -348 194q-66 -186 -131 -520z" />
<glyph unicode="C" horiz-adv-x="1787" d="M45 627q0 -250 135 -459q66 -96 196 -177t271 -113t320 -32q471 0 819 228q-396 -122 -876 -122q-37 0 -74 1q-295 14 -498 145q-225 145 -225 379q0 207 139 481q119 238 285 420q207 229 337 230q68 0 132 -68q49 -61 98 -121q33 -37 33 -59q0 -39 -138 -94 q-30 -12 -30 -53q0 -13 3 -35t3 -27v-10q0 -47 35 -47q80 0 151 149q59 123 60 182q0 39 -21 68q-33 43 -78 88q-107 111 -254 211h-7q-97 0 -218 -102q-143 -123 -369 -430q-229 -315 -229 -633z" />
<glyph unicode="D" horiz-adv-x="2498" d="M43 10q0 57 55 109q125 100 400 100q162 0 358 -39q326 459 381 1204q-385 14 -510 31q-33 4 -63 4q-106 0 -199.5 -55t-91.5 -55q-10 0 -12.5 19.5t-2.5 45.5q0 225 162 225q41 0 92 -16q264 -10 621 -65q0 68 -2 98q-37 86 -37 139q0 78 67 78h3q86 -8 120.5 -54 t34.5 -151q0 -33 -2 -76q-1 -6 -1 -15q0 -18 3 -50q356 -72 647 -205q381 -174 381 -358q0 -80 -71 -158q-309 -326 -623 -492q-399 -213 -876 -213h-9q-295 -96 -516 -155q-70 -23 -131 -23q-82 0 -130 37t-48 90zM137 68q0 -43 51 -103q20 -16 76 -16q141 0 422 117 q-268 71 -408 71h-4q-137 0 -137 -69zM958 164q55 -12 127 -12q94 0 191 20q354 82 610 238q332 203 332 448q0 49 -14 98q-43 104 -133 185q-220 192 -644 229q-61 -625 -469 -1206z" />
<glyph unicode="E" horiz-adv-x="1368" d="M35 567q-1 -5 -1 -10q0 -89 190 -227q200 -146 503 -267q330 -133 639 -176q-199 59 -281 99q-358 186 -510 288q-284 192 -284 331q0 77 84 138q201 150 436 269q172 88 172 100q0 35 -162 92q-152 51 -303 103q-162 66 -162 120q0 25 31 50q80 63 223 129 q158 74 260 88q33 5 51 5q24 0 23 -8q0 -38 4 -49q12 -35 41 -34q51 0 141 108q6 8 7 15q0 31 -84 41q-6 2 -6 6q0 6 10 24.5t10 24.5t-9 6h-5q-45 -33 -111 -68q-182 -31 -381 -112q-221 -90 -315 -191q-18 -20 -19 -49q0 -168 574 -293q-684 -344 -766 -553z" />
<glyph unicode="F" horiz-adv-x="2025" d="M16 1663q0 23 4 43q14 60 58 108q35 39 68 39q8 0 16 -2h2q29 0 31 -45q-1 -18 -5 -45q-4 -12 -4 -24q0 -59 56 -119q49 -53 123 -88q20 -8 77 -8q190 0 600 90l52 121l168 65l-54 -162q590 117 725 152q55 12 125 12q186 0 187 -55q0 -16 -39 -43q-31 -23 -64 -45 q-14 -12 -49 -70q-27 -47 -47 -47q-35 0 -35 45q0 23 16.5 70t16.5 63q0 23 -23 27q-37 0 -135 -27q-236 -61 -743 -237l-244 -590q121 10 201 10q76 0 98 -8q10 -6 10 -23q0 -39 -39 -102q-36 -58 -57 -58q-2 0 -4 1q-10 2 -10 12q0 6 3 20.5t3 22.5q0 23 -23 35 q-12 4 -37 4q-74 0 -200 -45q-360 -827 -451 -852q-37 23 -84 434q-55 483 -65 520q-14 66 -86 127q-66 55 -66 78q0 27 38 56.5t65 29.5q33 0 84 -53q90 -90 124 -119q147 -109 287 -109q35 0 68 9l227 589q-337 -108 -582 -108h-4q-129 0 -200 27q-92 41 -142 127 q-41 72 -41 147zM305 858q40 -705 101 -760q23 12 61 80q94 164 256 574q-55 2 -115 14q-147 27 -303 92z" />
<glyph unicode="G" horiz-adv-x="1339" d="M-141 70q88 70 250 176l-3 2q-119 217 -118 452q0 299 200 574q219 301 361 420q117 100 212 100h7q213 -147 324 -293q20 -29 20 -65q0 -59 -57 -179q-72 -145 -150 -145q-35 0 -35 47v10q0 4 -2 24.5t-2 33.5q0 41 29 53q133 55 133 92q0 23 -31 58q-47 59 -96 118 q-61 63 -129 64q-127 0 -328 -221q-152 -166 -262 -416q-119 -268 -119 -473q0 -141 74 -238q360 231 522 309q326 152 637 152l349 -125q-133 59 -291 59q-129 0 -238 -34l-4 -2q-256 -350 -256 -879q0 -240 51 -483q43 -199 58 -199q0 20 -62 186q-96 250 -96 594 q0 250 47 488q41 207 78 245q-57 -16 -115 -32q-141 -47 -295 -115q-201 -88 -364 -184q102 -123 282 -246q55 -37 109 -74q-295 96 -406 264q-8 10 -24 35q-127 -72 -260 -153z" />
<glyph unicode="H" horiz-adv-x="1382" d="M-4 -6q0 -4 4 -4q10 0 39 16q260 152 268 152q-2 0 -4 -2q-1 -39 -1 -74q0 -205 30 -285q2 -4 6 -4q41 0 121 469q164 188 530 324q-129 -575 -139 -901q0 -57 8 -58q4 0 64 223q41 170 75 308q82 332 129 452q150 27 256 84q90 51 91 78q0 16 -43 16q-78 0 -293 -53 q113 473 211 762q20 80 20 123q0 39 -16 39q-23 0 -55.5 -51.5t-57.5 -128.5q-27 -98 -246 -762q-209 -61 -512 -299q29 473 408 1442q2 10 2 16q0 10 -8 10q-17 0 -66 -45q-383 -834 -502 -1542q-319 -274 -319 -305z" />
<glyph unicode="I" horiz-adv-x="743" d="M23 -203q-4 -33 -4 -55q0 -39 14 -39q16 0 30 45q10 8 27 59q20 117 39 236q47 242 133 475q121 324 307 608q68 109 68 150q0 20 -16 20q-56 0 -271 -186q-205 -352 -254 -637q-1 -10 -1 -19q0 -28 9 -51q-8 -33 -81 -606zM467 1298q0 -7 4 -7q2 0 4 1q41 25 78 54 q88 68 139 143q-4 160 -49 160q-31 -8 -103.5 -158t-72.5 -193z" />
<glyph unicode="J" horiz-adv-x="1007" d="M2 573q0 57 31 103q673 964 891 964q70 0 82 -110q-2 -133 -62 -371q-145 -569 -557 -1569l33 211q147 471 350 1178q39 170 39 268q0 135 -70 135q-90 0 -252 -186q-80 -90 -118 -137q-82 -104 -123 -172q-152 -264 -152 -348q0 -49 49 -50q11 1 25 3q14 0 33 -15 q41 -35 92 -133l-268 127q-23 55 -23 102z" />
<glyph unicode="K" horiz-adv-x="1480" d="M39 256q0 12 33 43q78 74 305 219q186 563 186 854q0 86 -14 123q-25 41 -74 41q-41 0 -90 -33l-141 -20q212 153 393 153h2q25 0 41 -4q39 -16 39 -127q0 -274 -260 -960q188 27 276 88q102 86 180 172q186 207 218 387q266 266 344 268q4 -2 4 -8q0 -61 -285 -419.5 t-397 -428.5q426 -201 684 -426q-624 335 -776 335q-7 0 -13 -1q-59 -23 -116 -47q-76 -39 -189 -160l-129 -426q-14 4 -31 39q-2 47 90 346q-98 -45 -174 -45q-70 0 -106 37zM178 309q4 -8 21 -8q41 0 131 45l26 98q-172 -94 -178 -135zM428 381q47 96 123 117l-96 -31z " />
<glyph unicode="L" horiz-adv-x="1314" d="M14 1079q-2 8 80 74q92 43 158 53q29 4 57 21q72 37 133 119l13 127v8q0 64 90 166q90 98 217 116q13 1 25 1q81 0 81 -60q0 -117 -331 -426q-41 -274 -207 -1223q582 76 880 260q82 57 90 58h3q0 -10 -173 -152l-94 -63l-921 -326q-18 27 -19 41q0 8 10.5 24.5 t14.5 26.5q35 39 84 113q137 401 225 1198q-355 -156 -415 -156h-1zM530 1415l5 23q123 156 127 198q-2 16 -13 17q-20 0 -88 -80q-10 -12 -31 -158z" />
<glyph unicode="M" horiz-adv-x="2160" d="M0 82q0 -102 102 -102q53 0 134 28q55 43 135 182q193 334 483 1098q0 -745 152 -1003q29 -39 69 -39q104 0 281 268q14 20 252 424q39 76 78 147q94 170 174 279q-104 -756 -105 -1210q0 -248 29 -347q47 -114 124 -114h1q82 0 176 141q-49 -39 -90 -39q-55 0 -86 64 q-14 33 -15 192q0 346 48 871q49 549 92 594l127 124l-127 101q-438 -831 -727 -1151q-121 -133 -201 -154q-92 10 -139 197q-39 158 -39 405q0 332 53 527l-176 51q-145 -844 -373 -1208q-92 -154 -196 -197q-30 2 -55 2t-46 -2q-39 -8 -78 -35q-57 -41 -57 -94z" />
<glyph unicode="N" horiz-adv-x="1970" d="M0 76q0 53 61 96q47 33 80 39q16 1 42 1t61 -1q102 43 198 197q229 373 381 1237l178 -52q-14 -55 -14 -163q0 -367 123 -848q131 -524 270 -539l183 1331q8 61 28 121q51 143 154 248l129 -103l-129 -129q-25 -57 -59 -256q-82 -473 -193 -1560h-1q-205 0 -474 657 q-37 111 -66 244q-68 322 -78 717q-446 -1178 -630 -1307q-90 -24 -138 -24h-4q-63 0 -90 49q-12 23 -12 45z" />
<glyph unicode="O" horiz-adv-x="1325" d="M51 489q0 268 129 560q133 301 343 490.5t407 189.5q209 0 307 -211q-2 -74 -43 -144q-25 -39 -29 -39v2q0 4 4 11l5 75q-53 221 -162 265q-27 12 -62 12q-139 0 -313 -168q-188 -178 -311 -459q-113 -254 -113 -514q0 -170 47 -291t125 -151q33 -14 76 -15 q154 0 330 144q197 160 311 428q84 195 84 387q0 31 -2 63q12 111 47 170q8 10 16 11q21 0 21 -76q8 -57 8 -117q0 -195 -109 -461q-125 -301 -338 -490.5t-409 -189.5q-68 0 -125 25q-117 47 -180.5 178t-63.5 315z" />
<glyph unicode="P" horiz-adv-x="1161" d="M68 -2v98q18 246 55 484q92 573 268 1013q-47 16 -108 17q-78 0 -158 -27q-20 -8 -21 23q0 70 52 94q12 4 43 4q86 0 247 -41q98 88 115 88q4 0 2 -4q-16 -41 -45 -105q598 -213 598 -368q0 -18 -10 -29q-74 -82 -260 -168q-174 -80 -273 -90q-45 -8 -247 -26 q-115 -282 -115 -755v-32l-4 -164q-8 -205 -39 -205q-8 0 -14 13q-25 43 -86 180zM340 1051q596 76 596 213q0 27 -21 45q-39 31 -96 67q-137 89 -348 195q-66 -186 -131 -520z" />
<glyph unicode="Q" horiz-adv-x="1374" d="M55 487q0 270 129 562q133 303 345 492.5t409 189.5q63 0 121 -23q106 -43 168 -172q-2 -94 -53 -180l6 84q-55 211 -160 252q-29 12 -66 12q-139 0 -309 -160q-182 -174 -307 -452q-115 -260 -115 -535q0 -170 46 -292t120 -152q45 -16 84 -17q49 0 115 27q23 23 80 59 q18 6 30 4q12 -4 19 0q252 160 391 478q113 252 113 407q0 49 -7 105q9 59 25 94q8 23 18.5 46t34.5 44q4 3 7 3q18 0 18 -103q0 -307 -141 -609q-170 -369 -416 -551q125 -156 565 -231l55 -21q-55 -18 -127 -18q-76 0 -147 18q-188 57 -508 158q-90 -39 -176 -39 q-63 0 -121 25q-119 47 -182.5 178t-63.5 317z" />
<glyph unicode="R" horiz-adv-x="1157" d="M61 6v98q18 244 56 482q90 569 266 1007q-47 18 -107 19q-80 0 -157 -27q-20 -8 -21 23q0 68 52 92q12 6 43 6q84 0 245 -41q98 86 115 86q4 0 2 -4q-16 -39 -45 -102q596 -213 596 -367q0 -18 -10 -31q-76 -82 -260 -168q-174 -80 -271 -88q-29 -2 -135 -10v-13 q0 -328 199 -786q160 -365 399 -714q209 -307 270 -322q51 -10 82 -42t31 -58q0 -20 -16 -21q-8 0 -19 6q-61 27 -123 56q-80 37 -153 108q-98 94 -217 273q-164 260 -281 503q-283 586 -285 994q-112 -279 -112 -745v-40l-6 -164q-6 -202 -37 -202q-8 0 -15 12 q-25 43 -86 180zM334 1055q592 76 592 213q0 25 -21 43q-39 31 -94 67q-137 89 -348 195q-66 -186 -129 -518z" />
<glyph unicode="S" horiz-adv-x="1224" d="M-86 -279q0 8 10 9q23 0 84 -31q840 555 840 1049q0 160 -84 266q-184 209 -184 379q0 113 77 198q53 57 118 83t163 26q236 0 237 -154q-1 -10 -7 -30q-8 -26 -7 -29q0 -10 -21.5 -21.5t-43.5 -11.5q-43 0 -52 45q-2 29 35 35q2 7 2 15q-1 25 -23 53q-28 36 -63 47 q-14 4 -30 4q-76 0 -151 -73t-81 -169q-1 -20 -1 -39q0 -84 22 -144q26 -74 127 -224q111 -168 110 -269q0 -113 -160 -307q-205 -252 -450 -489q-299 -291 -395 -291q-14 0 -25 8q-47 47 -47 65z" />
<glyph unicode="T" horiz-adv-x="1470" d="M41 1520q221 180 408 180q154 0 245 -109q158 -182 453 -182q131 0 276 41q2 -8 2 -16q0 -41 -65 -70q-82 -25 -375 -25q-92 0 -203 2q-201 -621 -319 -1085q-119 -403 -359 -584q-16 -12 -16 -18v-2q23 0 88 119q94 178 193 508q135 449 254 1120q-12 213 -197 213 q-41 0 -80 -13q-262 -79 -305 -79z" />
<glyph unicode="U" horiz-adv-x="1392" d="M35 387q0 -162 76 -281q88 -135 241 -135q33 0 66 6q86 35 188 150q242 276 518 901q-88 -340 -88 -596q0 -309 113 -434q79 -71 93 -71q3 0 3 3q0 4 -2 9q115 303 115 360q0 8 -2 8q-121 -184 -132 -184h-1q-70 121 -70 340q0 254 94 635q20 82 21 133q0 72 -39 72 q-6 0 -12 -3q-29 -12 -58 -32q-68 -49 -127 -121q-190 -684 -448 -930q-106 -104 -219 -113q-201 29 -201 289q0 201 123 545q78 223 229 557q133 293 139 322q1 8 1 15q0 40 -38 40q-57 0 -198 -111q31 -41 31 -121q0 -150 -97 -385q-109 -238 -214 -476t-105 -392z" />
<glyph unicode="V" horiz-adv-x="1927" d="M90 1473l62 -404q0 -752 186 -1059q39 -51 94 -51q143 0 381 313q182 242 317 512q381 762 633 899q66 39 66 70q0 55 -221 55q-541 -1026 -897 -1421q-150 -166 -248 -190q-213 25 -213 575q0 295 57 639q8 53 8 100q0 113 -51 113q-57 0 -174 -151z" />
<glyph unicode="W" horiz-adv-x="2224" d="M18 1522q0 -70 78 -133l94 -43q115 -92 115 -353q0 -334 -209 -848l-12 -28q-31 -37 -31 -97q0 -61 39 -135q623 1130 817 1352q20 12 41 12q113 0 185 -311q63 -272 63 -590q0 -186 -27 -282q23 -115 58 -115q6 0 10 4q35 33 61 74q68 94 93 196q125 346 340 840 q240 559 301 606q33 25 67 25q66 0 103 -90q-18 225 -133 225q-59 0 -123 -51q-76 -84 -168 -252q-217 -408 -480 -1180q-133 731 -229 1028q-12 31 -33 31q-63 0 -235 -254q-135 -209 -268 -418q-78 -119 -248 -366q-31 -45 -41 -45q-2 0 -2 6q33 182 65 366q43 272 43 461 q0 135 -45 287q-59 211 -164 211q-41 0 -92 -51q-33 -35 -33 -82z" />
<glyph unicode="X" horiz-adv-x="1744" d="M45 88q-2 -16 -2 -31q0 -79 53 -125q28 -24 89 -24h5q68 0 99 16q20 10 20 86q0 35 2 47q12 55 394 566q10 14 38 51l19 22l299 -143l67 22q-35 12 -150.5 88t-131.5 99q-20 31 -2 49l454 627q94 104 224 252q10 14 108 86q71 52 71 73q0 2 -1 4q-90 -6 -164 -73 l-178 -178q-145 -147 -230 -261q-49 -66 -403 -522q-25 8 -51 17q-129 55 -303 147l-78 84q-59 63 -82 63q-27 0 -58.5 -27.5t-41.5 -51.5q-2 -5 -2 -12q0 -25 30 -68q35 -47 62 -62q96 -29 280 -88q39 -14 183 -80l-11 -20q-37 -45 -51 -62q-201 -223 -446 -469 q-20 -20 -74 -51q-33 -18 -37 -51zM1235 483q17 24 56 24q6 0 12 -1q23 -4 45 -21q61 -39 139 -84q35 -20 35 -24q0 -2 -4 -2h-1q-28 0 -282 108z" />
<glyph unicode="Y" horiz-adv-x="1185" d="M29 264q0 111 41 225q74 201 264 590q144 294 144 328q0 3 -1 4q-16 20 -55 21q-58 -1 -148 -54q68 121 154 170q20 10 45 11q55 0 111.5 -38t56.5 -75q0 -8 -2 -16q-176 -342 -354 -682q-213 -418 -213 -558q0 -90 80 -90q23 0 49 9q131 31 299 186q94 90 258 283 q127 152 160.5 164t91.5 57q47 39 73 39q14 0 27 -9q45 -20 45 -63q0 -76 -133 -416q-94 -240 -242 -532q-158 -313 -182 -369q-29 -72 -49 -149q-2 10 -23 34q-23 18 -22 68q0 98 61 233q190 412 203 441q168 385 172 518q-596 -543 -747 -608q-9 -2 -18 -2q-51 0 -95 70 q-51 81 -51 210z" />
<glyph unicode="Z" horiz-adv-x="1505" d="M20 -240q0 -33 17 -36q417 446 1165 737q25 -14 51 -15q90 0 189 129q27 39 26 68q0 33 -41 39q-145 -70 -311 -162q-399 -223 -844 -532q88 303 215 579q301 664 746 1080q-39 22 -73 22h-3q-47 0 -74 -39l-16 -12q-358 -258 -653 -258q-139 0 -228 53l-32 78 q-100 -70 -101 -127q0 -25 19 -41q37 -27 123 -27q139 0 415 76q174 49 348 101q16 4 -22 -41q-186 -217 -406 -537q-104 -137 -301 -557q-209 -449 -209 -578z" />
<glyph unicode="\" horiz-adv-x="1097" d="M111 1593l24 45q76 -102 158 -110l332 -1075q82 -266 190 -523q102 -240 172 -340q-90 8 -180 127q-37 51 -53 52q-6 0 -11 -7q-434 1536 -632 1831z" />
<glyph unicode="^" horiz-adv-x="741" d="M45 1346q0 20 12 30q300 264 314 254q51 -16 68.5 -120.5t140.5 -292.5q117 -182 116 -177q0 -12 -366 435q-57 -45 -115 -89q-123 -96 -131 -96q-39 0 -39 56z" />
<glyph unicode="`" horiz-adv-x="499" d="M66 1419q0 -37 45 -80q70 -63 139 -127l178 -88q-174 242 -188 478q-111 -6 -162 -123q-12 -37 -12 -60z" />
<glyph unicode="a" horiz-adv-x="1011" d="M41 88q0 59 33 133q80 170 258 262q135 72 299 86q-266 -92 -371 -196q-78 -90 -78 -168q0 -94 146 -105h10q73 0 199 76q147 90 147 180q0 47 -47 88q61 -16 176 -41q37 -6 37 -41q0 -14 -8 -32q-8 -41 -8 -78q0 -190 178 -270q-45 0 -215 45q-115 25 -115 120 q0 35 16 66q-47 -55 -264 -154q-174 -79 -274 -79h-2q-117 0 -117 108z" />
<glyph unicode="b" horiz-adv-x="702" d="M41 418q0 499 446 1556q2 53 31 58q49 0 51 -43q-8 -45 -174 -476q-168 -438 -188 -544q-86 -428 -86 -588q0 -154 67 -211q61 -51 220 -51h6q125 0 125 84q0 78 -70 157q-27 29 -63 56q-88 66 -216 119q315 -29 445 -308q20 -45 20 -102q0 -141 -137 -141q-78 0 -199 53 q-137 61 -139 63q-27 18 -104 119q-35 57 -35 199z" />
<glyph unicode="c" horiz-adv-x="671" d="M41 154q0 -113 174 -164q37 -10 78 -10q121 0 233 72q106 68 105 141v8q-127 -106 -269 -107q-47 0 -79 10q-98 35 -99 129q0 49 27 103q31 63 111 123q99 71 207 71h3h5q58 0 116 -24q-49 63 -176 63h-12q-94 -4 -217 -94q-113 -84 -154 -164q-53 -104 -53 -157z" />
<glyph unicode="d" horiz-adv-x="1030" d="M61 80q0 61 33 135q72 170 242 248q109 47 285 65q-246 -66 -345 -170q-41 -53 -40 -139q0 -104 96 -117q6 -1 12 -1q52 0 141 46q111 55 158 127q18 51 72 158q158 322 317 643q289 621 289 821q0 90 -61 91q-20 0 -48 -9l-157 -57q20 20 43 39q51 41 106 57h6 q141 0 142 -198q0 -248 -209 -766q-133 -330 -238 -525q-25 -44 -86 -202q-8 -41 -8 -78q0 -195 168 -277q-41 2 -203 47q-108 25 -108 121q0 37 16 68q-45 -55 -250 -156q-168 -82 -262 -82q-111 0 -111 111z" />
<glyph unicode="e" horiz-adv-x="718" d="M0 178q26 -7 59 -7q28 0 60 5q8 -39 16 -76q18 -59 98 -82q68 -18 121 -18q72 0 158 41q102 53 207 109q-123 -37 -256 -37q-100 0 -180 18q-41 31 -41 55q0 25 16 58q145 86 225 174q68 76 68 127q0 45 -96 45q-80 0 -144.5 -59.5t-140.5 -198.5zM266 332q10 37 76 131 q51 76 82 76q16 0 35 -13q8 -8 8 -20q0 -63 -201 -174z" />
<glyph unicode="f" horiz-adv-x="704" d="M-283 -1249v10q0 77 117 248q199 293 251 392t91 204q96 252 127 497l-221 -125l6 37q113 96 238 199l22 102q76 344 178 531q68 119 121 137q47 18 68 18q71 0 71 -113q0 -44 -10 -100q-18 -86 -63 -180q-106 -225 -316 -444q-76 -389 -192 -666q-82 -190 -287 -534 q-156 -262 -156 -334q0 -63 80 -72q90 -8 90 -24q0 -12 -65 -12q-14 0 -31 1q-76 4 -96 68q-2 4 -23 160zM397 274q37 35 78 105q51 86 66 104q147 188 147 363q0 80 -35 80q-10 0 -24 -13q-57 -59 -115 -217q-25 -74 -102 -346z" />
<glyph unicode="g" horiz-adv-x="868" d="M-63 -1708q-3 0 -3 7q0 11 7 38q102 381 190 598q59 147 150 295q33 63 81 184q117 291 285 822q-43 -59 -244 -166q-164 -86 -256 -86q-108 0 -108 114q0 68 31 146q72 180 213 245q76 37 252 56q-199 -31 -293 -139q-37 -49 -37 -148q0 -131 100 -145q6 -1 12 -1 q66 0 181 81q135 98 135 196q0 51 -43 96q115 -39 164 -45q30 -6 30 -43q0 -18 -4 -37q-91 -331 -202 -655q-111 -360 -365 -903q-238 -510 -276 -510z" />
<glyph unicode="h" horiz-adv-x="843" d="M0 403q0 -229 74 -385q12 -23 39 -22q61 0 157 113l125 225q50 72 107 72h6q47 -6 47 -49v-7q-12 -55 -23 -110q-4 -25 -4 -47q0 -47 20 -83q30 -52 154 -108q18 -8 183 -72l196 -41q-326 113 -405 308q-18 61 -19 133q0 25 2.5 63.5t2.5 52.5q0 61 -56 66q-17 1 -34 1 q-155 0 -275 -99l-125 -234q-70 166 -70 312q0 94 27 157q88 178 496 688q403 504 458 512q27 2 54.5 -28.5t27.5 -71.5q0 -115 -223 -152q-57 -9 -57 -43q0 -6 2 -12q16 -45 47 -45q23 0 51 21q74 47 148 96q108 77 108 130q0 13 -4 23q-47 96 -61 119q-39 51 -95 51 q-66 0 -503 -542q-444 -549 -533 -746q-45 -102 -45 -246z" />
<glyph unicode="i" horiz-adv-x="702" d="M31 20q4 -6 16 -6q31 0 149 64q111 60 134 59h2q12 -4 26 -45q18 -53 35 -76q31 -39 86 -39q61 0 146 54q74 47 73 57l-2 2l-4 -4q-51 -31 -123 -31q-70 0 -90 11q-33 16 -33 77q0 39 13.5 129t13.5 121q0 47 -29 47q-27 0 -57 -61q-47 -102 -61 -125q-20 -27 -58 -61 q-87 -81 -237 -173zM494 662q125 495 308 495h1q80 -18 80 -35q0 -10 -41 -35q-47 -31 -62 -53q-124 -220 -286 -372z" />
<glyph unicode="j" horiz-adv-x="702" d="M-274 -1415q0 8 6 29q154 571 293 800q27 53 67 154q96 242 238 682q31 23 30 59q0 63 -79 150q96 -33 137 -37q25 -6 24 -39q0 -12 -4 -29q-74 -276 -168 -544q-92 -303 -309 -781q-203 -451 -233 -450q-2 2 -2 6zM467 649q125 489 307 490q80 -18 80 -35q0 -8 -41 -35 q-47 -29 -59 -51q-125 -217 -287 -369z" />
<glyph unicode="k" horiz-adv-x="952" d="M12 225q-2 -7 -2 -12q0 -22 25 -29h1q14 0 64 42q45 39 64 39q2 0 4 -1q4 -2 4 -10q0 -25 -44 -141.5t-44 -145.5q0 -14 8 -14q17 0 105 170q119 231 176 321q109 174 174 179q20 1 38 1q111 0 111 -43q0 -44 -100 -112t-207 -104q-59 -18 -59 -82q0 -68 61 -166 q53 -84 101 -117q29 -23 94 -23q188 0 301 146q-57 -31 -135 -31q-84 0 -170 31q-37 16 -103 67q-84 68 -84 111q0 25 29 41q481 256 481 309q0 8 -6 13q-47 28 -131 28h-6q-98 0 -248 -37q-59 -14 -121 -30q8 25 422 678q401 635 402 690q0 8 -25 8q-123 0 -346 -363 q-215 -354 -619 -1206z" />
<glyph unicode="l" horiz-adv-x="638" d="M0 -6q0 16 61 84q27 33 52 65q55 80 80 150q395 1069 694 1509q123 184 219 230q33 -2 33 -62q0 -315 -852 -1704q-8 -31 -8 -57q0 -127 170 -135q33 0 137 37q-52 -57 -138 -97q-70 -32 -117 -32q-11 0 -20 2q-106 30 -106 191v9l-176 -186q-18 -8 -25 -8q-4 0 -4 4z M338 436q111 225 326 592q223 383 292 518q129 254 142 402q0 6 -4 6q-62 0 -756 -1518z" />
<glyph unicode="m" horiz-adv-x="1480" d="M29 279q0 -14 12 -17q4 0 176 131q154 120 202 120q4 0 7 -1q29 -6 29 -41q0 -61 -120 -248.5t-120 -212.5q0 -8 6 -10q3 -1 7 -1q55 0 282 175q260 205 267 207t14 2q20 0 20 -29q0 -37 -44 -152.5t-44 -133.5q0 -6 4 -9h2q23 1 182 105q157 103 187 103q2 0 4 -1 q16 -4 16 -69v-43q-2 -31 -2 -48q0 -143 72 -143q61 0 162 64q88 55 104 88q-145 -76 -207 -76h-6q-39 6 -39 133q0 61 8 100q4 14 15 45q8 23 8 33q0 16 -23 25q-2 1 -4 1q-26 0 -151 -79q-137 -86 -172 -86q-23 0 -23 33q0 29 22.5 118t22.5 115q0 23 -10 25q-3 1 -6 1 q-40 -1 -192 -101q-159 -106 -185 -105h-2q-6 2 -6 12q0 25 69.5 178.5t69.5 198.5q0 23 -16 27q-33 -4 -103 -45q-167 -99 -489 -361q-6 -16 -6 -28z" />
<glyph unicode="n" horiz-adv-x="1034" d="M27 272q0 -14 12 -16q4 0 167 126q151 117 197 117q4 0 7 -1q29 -8 28 -39q0 -59 -116.5 -240.5t-116.5 -206.5q0 -8 6 -10q3 -1 7 -1q54 0 271 171q252 197 258.5 199t12.5 2q18 0 18 -31q0 -47 -53 -193.5t-53 -164.5q0 -6 4 -7q7 -1 15 -1q56 0 140 38q76 33 140 78 q12 16 26 33q-39 -12 -77 -27q-63 -20 -97 -20q-39 0 -39 26q0 10 4 21q84 262 84 334q0 27 -10 28q-2 1 -5 1q-37 0 -185 -98q-153 -101 -178 -101h-2q-6 2 -7 12q0 25 68 173.5t68 191.5q0 23 -17 24q-33 -4 -100 -43q-162 -94 -471 -348q-6 -16 -6 -27z" />
<glyph unicode="o" horiz-adv-x="755" d="M-27 287q14 27 138 157q-1 13 -5 105l25 24q8 -2 64 -88q135 70 274 70q31 0 63 -4q90 -6 121 -66q16 -29 29 -127q1 -9 1 -19q1 -73 -53 -171q-60 -112 -138 -145q-90 -41 -191 -41q-106 0 -170.5 54t-64.5 159q0 68 28 145q-29 -14 -112 -68zM166 254q0 -72 50 -122 t157 -50q76 0 131 35q43 29 69 104q23 68 23 141q0 70 -23 101q-29 33 -98 33h2q0 -1 -129 -15q-29 -2 -85 -27.5t-60 -35.5q-10 -39 -23 -78q-14 -49 -14 -86z" />
<glyph unicode="p" horiz-adv-x="868" d="M-541 -1581q-1 -4 -1 -8q0 -20 18 -23q3 -1 6 -1q6 0 14 3q23 6 352 758q348 793 398 872q84 133 192 261q121 141 168 141q16 0 21 -21q29 -121 29 -169q0 -7 -1 -13q-6 -82 -102 -141q-63 -39 -123 -49q-8 -2 -8 -11q0 -14 30.5 -32.5t67.5 -18.5q25 0 49 8 q43 18 197 111q-186 -70 -229 -70q-8 0 -9 4q0 4 4 9q176 9 176 378q0 29 -1 60q-2 49 -62 49q-49 0 -114.5 -35t-100.5 -80q-88 -127 -205 -348q-281 -528 -663 -1435l577 1343q33 66 520 1092l-127 -66q-805 -1718 -1073 -2568z" />
<glyph unicode="q" horiz-adv-x="868" d="M-74 -1425q-1 5 -1 10q0 88 161 321q217 317 255 401.5t83 205.5q109 288 242 710q-43 -57 -238 -164q-162 -82 -252 -82q-104 0 -104 113q0 63 28 141q70 176 211 246q82 41 248 60q-199 -41 -291 -146q-35 -49 -35 -145q0 -129 97 -142q7 -1 14 -1q64 0 174 79 q133 94 133 191q0 51 -41 94q111 -37 160 -43q31 -6 31 -45q0 -14 -6 -35q-96 -352 -322 -928q-74 -215 -252 -516q-193 -326 -215 -379q-20 -50 -20 -85q0 -69 80 -76q102 -8 102 -29q0 -11 -66 -11q-19 0 -43 1q-86 4 -108 73q-2 6 -25 181z" />
<glyph unicode="r" horiz-adv-x="618" d="M8 489q37 20 84 21q98 0 98 -61q5 -52 5 -68q0 -7 -1 -7l-1 1q121 117 188 137q96 27 219 35l-29 -35q-197 -6 -333 -258q-55 -104 -97 -250q-49 -59 -73 -59q-23 0 -23 47q0 25 6 53q8 61 45 201q35 123 35 166q0 65 -51 65h-2q-13 0 -29 -4z" />
<glyph unicode="s" horiz-adv-x="407" d="M-100 -293q-1 5 -1 11q0 64 146 249q166 211 166 271q0 49 -80 59t-86 53q-1 4 -1 9q0 56 95 145q91 86 185 133q-2 -2 -78 -98q-82 -104 -83 -139q0 -31 58 -31h4h29q18 2 29 2q49 0 58 -15.5t9 -31.5q0 -53 -59 -123q-41 -45 -232 -301q-145 -194 -158 -194q-1 0 -1 1z " />
<glyph unicode="t" horiz-adv-x="968" d="M39 676q0 27 45 -6q138 -75 283 -75q14 0 28 1q39 150 283 541q211 340 252 381q18 17 35 17q7 0 14 -3q-61 -53 -225 -395q-168 -350 -219 -541q8 -18 47 -18q131 0 534 174q6 4 8 4q3 0 3 -2q0 -9 -87 -64q-117 -74 -239 -119q-145 -54 -264 -54q-16 0 -31 1l-164 -616 q-8 10 -53 30q-10 154 -31 275q-49 291 -135 366l-35 15q-14 20 -39 51q-10 23 -10 37zM154 565q31 -39 55 -96q61 -137 90 -350l84 397q-104 0 -229 49z" />
<glyph unicode="u" horiz-adv-x="968" d="M51 86q0 61 35 117q92 154 92 190q0 20 -57 127q143 -66 143 -141q0 -23 -14 -41q-68 -80 -68 -150q0 -84 129 -92h10q66 0 177 68q131 80 131 160q0 43 -41 79q55 -16 157 -36q31 -6 31 -37q0 -12 -6 -29q-6 -37 -6 -70q0 -170 158 -241q-39 0 -191 39q-102 23 -102 110 q0 29 14 58q-43 -49 -235 -138q-156 -71 -246 -71h-2q-109 0 -109 98z" />
<glyph unicode="v" horiz-adv-x="698" d="M-23 532q193 -256 230 -663q18 -94 26 -94q20 0 54 131q381 758 598 930q18 10 18 16q-2 4 -10 4q-37 0 -105 -51q-92 -72 -170 -199l-342 -549q-98 322 -141 418q-33 59 -121 60q-19 -1 -37 -3z" />
<glyph unicode="w" horiz-adv-x="1107" d="M16 303q113 104 166 115h2q34 0 60 -88q26 -90 30 -215q-2 -31 -2 -62q0 -27 27 -26h1q20 -1 124 111q99 106 129 107q2 0 4 -1q20 -6 22.5 -130t22.5 -126q29 0 227.5 219t219.5 219q41 80 41 119q-1 31 -21 35h-1q-44 0 -208 -220q-178 -238 -182 -239q-10 -6 -19 -6 q-22 0 -22 58v5q0 35 8 111t8 96q0 27 -8 27q-17 0 -135.5 -133.5t-139.5 -133.5h-1q-14 0 -17 97q-2 131 -10 180q-16 96 -66 96q-45 0 -148 -89t-112 -126z" />
<glyph unicode="x" horiz-adv-x="907" d="M16 -102q-1 -8 -1 -16q0 -45 30 -70q16 -14 55 -15q35 2 52 10q10 4 10 31q2 41 2 43q6 29 217 309q4 8 20 29l11 12l442 -258l37 11q-20 8 -222 140t-212 144q-10 16 0 27l250 346q51 57 122 139q6 6 60 45q43 33 39 45q-49 -4 -90 -41q-76 -72 -226 -241 q-27 -37 -221 -289q-14 6 -29 10q-72 31 -165 82l-45 45q-31 35 -43 35q-39 0 -56 -43q-6 -14 14.5 -43t34.5 -35q53 -16 156 -49q20 -8 98 -45l-4 -10l-28 -35q-111 -123 -246 -256q-12 -12 -41 -29q-18 -10 -21 -28z" />
<glyph unicode="y" horiz-adv-x="868" d="M-35 -1624q-3 0 -3 7q0 10 7 36q98 360 181 567q57 139 141 279q33 61 78 176q111 276 272 778q-43 -55 -231 -158q-158 -81 -240 -81h-2q-94 0 -94 108q0 12 18 139q18 117 78 217q41 72 96 121q18 12 37 25q-23 -27 -59 -141q-41 -133 -41 -224q0 -125 84 -125t261 159 t193 157q29 -6 29 -45q0 -14 -4 -33q-87 -314 -193 -623q-104 -340 -344 -854q-227 -485 -264 -485z" />
<glyph unicode="z" horiz-adv-x="802" d="M49 479q33 -51 119 -51q92 0 227 64q-35 -41 -125 -205q-59 -94 -106 -213q-49 -125 -49 -183q0 -31 14 -34q174 123 547 262q12 -8 26 -8q45 0 95 63q14 20 14 35q0 16 -20 20q-113 -51 -547 -227q43 150 96 268q129 285 295 373q-20 10 -39 10q-23 0 -37 -18l-8 -6 q-205 -147 -336 -148q-76 0 -109 43l-16 41q-45 -30 -45 -66q0 -10 4 -20z" />
<glyph unicode="~" horiz-adv-x="802" d="M41 657q94 180 238 181q66 0 122 -35q68 -41 156 -41q102 0 205 61q-84 -145 -217 -145q-76 0 -144 43q-63 37 -141 37q-119 -1 -219 -101z" />
<glyph unicode="&#xa1;" horiz-adv-x="847" d="M-2 2q0 -8 18 82q12 55 31 104q39 123 98 211l383 820q-182 -977 -370 -1110q-70 -23 -117 -66t-41 -43zM584 1376q0 199 100 254q67 26 90 8q-23 -109 -78 -157q0 -2 -49 -60q-35 -41 -63 -45z" />
<glyph unicode="&#xa8;" horiz-adv-x="831" d="M102 1536q133 2 177 -49q18 -20 16 -51q26 -68 6 -88q-106 20 -158 77q-37 45 -41 111zM530 1536q133 2 177 -49q18 -20 16 -51q26 -68 6 -88q-109 20 -158 77q-37 45 -41 111z" />
<glyph unicode="&#xad;" horiz-adv-x="552" d="M84 422l352 33l33 114l-317 -34z" />
<glyph unicode="&#xae;" horiz-adv-x="1548" d="M45 0v98q18 242 55 477q90 567 265 1004q-47 16 -107 16q-78 0 -156 -26q-20 -8 -20 22q0 68 51 92q12 6 41 7q86 0 246 -41q96 86 112 86q4 0 5 -4q-16 -39 -45 -103q598 -84 849 -178q160 -57 160 -109q0 -8 -6 -14q-68 -74 -481 -215q-356 -123 -463 -141 q-80 -12 -117 -6l758 -617q-686 271 -899 588q-111 -274 -107 -762l-4 -164q-6 -201 -37 -200q-8 0 -14 12q-25 41 -86 178zM315 1042q811 180 811 344q0 20 -14 35q-43 27 -123 49q-195 57 -545 86q-66 -186 -129 -514z" />
<glyph unicode="&#xb4;" horiz-adv-x="499" d="M66 1124q174 242 188 478q109 -6 162 -123q12 -37 12 -60q0 -37 -47 -80q-68 -63 -137 -127z" />
<glyph unicode="&#xbf;" horiz-adv-x="942" d="M0 240q0 -104 51 -156q82 -84 234 -84q102 0 221 41q33 12 61 29q74 41 123 98q20 20 21 45q0 14 -9 25q-12 20 -24 38.5t-31 18.5q-20 -2 -46 -23.5t-26 -42.5q0 -8 5 -14q20 -31 2 -55q-25 -31 -80 -56q-74 -35 -164 -34q-170 -2 -170 192q0 27 2 62q10 84 55 161 q59 104 215 263q51 53 115 94q35 23 109 125q31 170 30 223q0 23 -6 22q-6 1 -18 -30q-70 -166 -211 -312q-23 -25 -238 -215q-221 -197 -221 -415zM741 1407q0 176 90 225q62 24 80 6q-18 -96 -67 -141q-2 0 -45 -51q-33 -37 -58 -39z" />
<glyph unicode="&#xc1;" horiz-adv-x="1247" />
<glyph unicode="&#xc2;" horiz-adv-x="1484" />
<glyph unicode="&#xc8;" horiz-adv-x="1548" />
<glyph unicode="&#xca;" horiz-adv-x="1728" />
<glyph unicode="&#xcb;" horiz-adv-x="1548" />
<glyph unicode="&#xcd;" horiz-adv-x="1044" />
<glyph unicode="&#xdf;" horiz-adv-x="972" d="M18 -43q0 -6 15 -6q23 0 67 10q20 10 39 25q45 32 74 73l-113 -53q-82 -37 -82 -49zM254 88l76 92q270 334 270 561q0 145 -104 265q-190 213 -191 387q0 115 82 202q53 57 118.5 84t168.5 27q214 0 239 -152q2 -8 -6 -34.5t-8 -30.5q0 -10 -21.5 -22.5t-43.5 -12.5 q-43 0 -54 47q-2 29 37 37q8 31 -21.5 69t-64.5 46q-14 4 -31 4q-80 0 -155.5 -74t-81.5 -172q-6 -113 21.5 -187.5t129.5 -230.5q113 -172 113 -293q0 -141 -164 -294q-31 -29 -309 -318z" />
<glyph unicode="&#xe5;" horiz-adv-x="1413" d="M31 256q37 51 88 96q25 20 137 158q2 16 2 33q0 63 -35 139q-14 33 -14 80q0 80 45 166l166 -119q43 6 82 -12l454 606q50 65 52 131q-4 18 -19 37q-39 45 -131 74q16 29 62 41q61 18 75 28q115 70 160 70q35 0 72 -23q45 -27 45 -227q0 -129 -27.5 -489.5t-27.5 -514.5 q0 -180 28 -258q35 8 69 -9t46 -17q6 0 4 6l6 -31l-117 -16l15 -228l-78 -43q-2 76 -33 265q-37 -4 -82 -4q-139 0 -307 28q-139 27 -414 94q-51 -72 -100 -165q-20 -39 -43 -74q-55 -84 -111 -137q-45 63 -43 221q0 20 -13 50t-13 44zM264 797q0 -68 23.5 -129.5 t48.5 -61.5q4 0 8 4q21 11 78 95l-156 129q-2 -18 -2 -37zM461 444q-6 -8 74 -53q94 -51 210 -86q156 -45 310 -45q35 0 67 2q-356 265 -561 326q-37 -51 -100 -144zM635 698q39 -14 264 -204q37 -31 250 -177q-8 297 -6 443q0 27 10 115t10 145q0 199 -119 326 q-96 -176 -200 -299q-29 -37 -62 -84q-76 -115 -147 -265z" />
<glyph unicode="&#xe7;" horiz-adv-x="1277" d="M47 610q0 -276 146 -497q96 -147 454 -265q-53 39 -106 76q-182 125 -289 244q-160 180 -141 342q25 236 170 498q111 203 258 364q209 231 340 232q72 0 135 -68q49 -61 100 -123q31 -37 31 -59q0 -39 -139 -97q-29 -12 -29 -55q0 -12 3 -32.5t1 -26.5q-4 -59 37 -60 q82 0 153 152q59 123 60 186q0 37 -19 66q-35 45 -79 92q-109 111 -259 213q-102 4 -227 -102q-147 -125 -373.5 -436.5t-226.5 -643.5z" />
<glyph unicode="&#xf1;" horiz-adv-x="802" />
<glyph unicode="&#x2c6;" horiz-adv-x="649" />
<glyph unicode="&#x2dc;" horiz-adv-x="802" d="M41 1415q94 180 238 180q66 0 122 -34q68 -41 156 -41q102 0 205 61q-84 -145 -217 -145q-76 0 -144 43q-63 37 -141 37q-119 -1 -219 -101z" />
<glyph unicode="&#x2000;" horiz-adv-x="1016" />
<glyph unicode="&#x2001;" horiz-adv-x="2032" />
<glyph unicode="&#x2002;" horiz-adv-x="1016" />
<glyph unicode="&#x2003;" horiz-adv-x="2032" />
<glyph unicode="&#x2004;" horiz-adv-x="677" />
<glyph unicode="&#x2005;" horiz-adv-x="508" />
<glyph unicode="&#x2006;" horiz-adv-x="338" />
<glyph unicode="&#x2007;" horiz-adv-x="338" />
<glyph unicode="&#x2008;" horiz-adv-x="254" />
<glyph unicode="&#x2009;" horiz-adv-x="406" />
<glyph unicode="&#x200a;" horiz-adv-x="112" />
<glyph unicode="&#x2010;" horiz-adv-x="552" d="M84 422l352 33l33 114l-317 -34z" />
<glyph unicode="&#x2011;" horiz-adv-x="552" d="M84 422l352 33l33 114l-317 -34z" />
<glyph unicode="&#x2012;" horiz-adv-x="552" d="M84 422l352 33l33 114l-317 -34z" />
<glyph unicode="&#x2013;" horiz-adv-x="1191" d="M84 422l936 33l88 114l-843 -34z" />
<glyph unicode="&#x2014;" horiz-adv-x="2215" d="M84 422l1872 33l176 114l-1686 -34z" />
<glyph unicode="&#x2018;" horiz-adv-x="499" d="M-6 1337q0 33 43 72q61 57 123 113l162 80q-158 -217 -170 -431q-99 7 -146 111q-12 33 -12 55z" />
<glyph unicode="&#x2019;" horiz-adv-x="499" d="M174 1171q158 217 170 431q98 -7 145 -111q12 -35 13 -55q0 -33 -43 -72q-61 -57 -125 -113z" />
<glyph unicode="&#x201c;" horiz-adv-x="862" d="M-6 1329q0 35 41 74q63 55 125 113l162 79q-158 -217 -170 -430q-101 7 -146 111q-12 33 -12 53zM326 1329q0 35 43 74q61 55 125 113l159 79q-158 -217 -170 -430q-98 7 -145 111q-12 33 -12 53z" />
<glyph unicode="&#x201d;" horiz-adv-x="862" d="M205 1171q158 217 170 431q98 -7 143 -113q12 -33 12 -53q0 -33 -41 -72q-63 -57 -124 -115zM537 1171q158 217 170 431q98 -7 145 -113q12 -33 12 -53q0 -33 -43 -72q-61 -57 -123 -115z" />
<glyph unicode="&#x201e;" horiz-adv-x="862" />
<glyph unicode="&#x202f;" horiz-adv-x="406" />
<glyph unicode="&#x205f;" horiz-adv-x="508" />
<glyph unicode="&#x25fc;" horiz-adv-x="870" d="M0 0v870h870v-870h-870z" />
</font>
</defs>
</svg>
